{"title":"Plague Town 2008 DVDRip Xvid BigPerm LKRG","uid":5886026,"size":855128930,"categoryP":"video","categoryS":"movies","magnet":"?xt=urn:btih:b3b5fc5baa3f2694a395188501b2887a304e2ba9&amp;dn=Plague+Town+2008+DVDRip+Xvid+BigPerm+LKRG&amp;tr=udp%3A%2F%2Ftracker.openbittorrent.com%3A80&amp;tr=udp%3A%2F%2Fopen.demonii.com%3A1337&amp;tr=udp%3A%2F%2Ftracker.coppersurfer.tk%3A6969&amp;tr=udp%3A%2F%2Fexodus.desync.com%3A6969","seeders":1,"leechers":0,"uploader":"neon","files":3,"time":1287055008,"description":"An American family visiting their Irish roots accidentally stumbles on a horde of bloodthirsty mutant children.\n\nJosslyn DeCrosta..............Molly Monohan\nErica Rhodes..................Jessica Monohan\nDavid Lombard.................Jerry Monohan\nLindsay Goranson..............Annette Rothman\nJames Warke...................Robin\nCatherine McMorrow............Agnes Brawney\nElizabeth Bove................Sheila\nMichael Donaldson.............Chap\n &lt;a href=&quot;\nhttp://www.imdb.com/title/tt1118687/&quot; rel=&quot;nofollow&quot; target=&quot;_NEW&quot;&gt;\nhttp://www.imdb.com/title/tt1118687/&lt;/a&gt;\n &lt;a href=&quot;\nhttp://www.youtube.com/watch?v=OMv6Kysi3q0&amp;feature=player_embedded&quot; rel=&quot;nofollow&quot; target=&quot;_NEW&quot;&gt;\nhttp://www.youtube.com/watch?v=OMv6Kysi3q0&amp;feature=player_embedded&lt;/a&gt;\n\n\nGeneral\nComplete name : Plague Town 2008 DVDRip Xvid BigPerm LKRG\\PlagueTown_LKRG.avi\nFormat : AVI\nFormat/Info : Audio Video Interleave\nFile size : 816 MiB\nDuration : 1h 25mn\nOverall bit rate : 1 341 Kbps\n\nVideo\nID : 0\nFormat : MPEG-4 Visual\nFormat profile : Advanced Simple@L5\nFormat settings, BVOP : Yes\nFormat settings, QPel : No\nFormat settings, GMC : No warppoints\nFormat settings, Matrix : Default (H.263)\nCodec ID : XVID\nCodec ID/Hint : XviD\nDuration : 1h 25mn\nBit rate : 888 Kbps\nWidth : 720 pixels\nHeight : 404 pixels\nDisplay aspect ratio : 16:9\nFrame rate : 23.976 fps\nColor space : YUV\nChroma subsampling : 4:2:0\nBit depth : 8 bits\nScan type : Progressive\nBits/(Pixel*Frame) : 0.127\nStream size : 540 MiB (66%)\nWriting library : XviD 1.2.1 (UTC 2008-12-04)\n\nAudio\nID : 1\nFormat : AC-3\nFormat/Info : Audio Coding 3\nMode extension : CM (complete main)\nCodec ID : 2000\nDuration : 1h 25mn\nBit rate mode : Constant\nBit rate : 448 Kbps\nChannel(s) : 6 channels\nChannel positions : Front: L C R, Side: L R, LFE\nSampling rate : 48.0 KHz\nBit depth : 16 bits\nVideo delay : 42ms\nStream size : 272 MiB (33%)\nAlignment : Split accross interleaves\nInterleave, duration : 500 ms (11.99 video frames)\nInterleave, preload duration : 500 ms\nLanguage : English\n\nthanks to BigPerm :)","torrent":{"xt":"urn:btih:b3b5fc5baa3f2694a395188501b2887a304e2ba9","amp;dn":"Plague+Town+2008+DVDRip+Xvid+BigPerm+LKRG","amp;tr":["udp%3A%2F%2Ftracker.openbittorrent.com%3A80","udp%3A%2F%2Fopen.demonii.com%3A1337","udp%3A%2F%2Ftracker.coppersurfer.tk%3A6969","udp%3A%2F%2Fexodus.desync.com%3A6969"],"infoHash":"b3b5fc5baa3f2694a395188501b2887a304e2ba9","infoHashBuffer":{"type":"Buffer","data":[179,181,252,91,170,63,38,148,163,149,24,133,1,178,136,122,48,78,43,169]},"announce":[],"urlList":[]}}